<svg width="357.853" height="98.3" viewBox="0 0 357.853 98.3" xmlns="http://www.w3.org/2000/svg"><g id="svgGroup" stroke-linecap="round" fill-rule="evenodd" font-size="9pt" stroke="#000" stroke-width="0.25mm" fill="#000" style="stroke:#000;stroke-width:0.25mm;fill:#000"><path d="M 12.8 98.3 Q 10.5 98.3 8.3 97.9 A 14.894 14.894 0 0 1 6.013 97.302 A 11.876 11.876 0 0 1 4.4 96.6 Q 3 95.9 1.6 94.5 A 5.398 5.398 0 0 1 0.002 90.654 A 7.086 7.086 0 0 1 0 90.5 Q 0 87.6 2.9 83.9 Q 5.741 80.276 12.227 76.652 A 62.936 62.936 0 0 1 12.5 76.5 A 43.821 43.821 0 0 1 16.28 74.589 Q 18.356 73.657 20.75 72.8 A 92.571 92.571 0 0 1 27.612 70.652 A 108.374 108.374 0 0 1 30.95 69.8 Q 36.4 68.5 41.85 67.75 A 81.67 81.67 0 0 1 48.251 67.114 A 66.535 66.535 0 0 1 52.1 67 A 4.62 4.62 0 0 1 52.446 67.012 Q 52.982 67.052 53.137 67.231 A 0.25 0.25 0 0 1 53.2 67.4 Q 53.2 67.8 52.4 67.8 Q 48.8 68.1 43.85 69 Q 38.9 69.9 33.6 71.35 Q 28.3 72.8 23.35 74.6 A 63.711 63.711 0 0 0 19.006 76.353 Q 16.999 77.256 15.284 78.222 A 37.891 37.891 0 0 0 14.8 78.5 A 57.236 57.236 0 0 0 11.3 80.668 Q 7.822 83.012 5.832 85.263 A 17.066 17.066 0 0 0 5.8 85.3 Q 2.9 88.6 2.9 91.2 A 4.339 4.339 0 0 0 4.423 94.537 A 6.414 6.414 0 0 0 5 95 A 6.914 6.914 0 0 0 6.772 95.839 Q 8.813 96.5 12 96.5 Q 18 96.5 23.7 94.3 Q 29.4 92.1 34.55 88.5 Q 39.7 84.9 44.1 80.45 A 104.318 104.318 0 0 0 50.179 73.764 A 90.761 90.761 0 0 0 52 71.5 A 94.788 94.788 0 0 0 59.405 60.459 A 86.249 86.249 0 0 0 60.3 58.85 A 82.393 82.393 0 0 0 63.747 51.736 A 65.645 65.645 0 0 0 65.75 46.4 A 47.608 47.608 0 0 0 66.938 42.111 Q 67.414 39.987 67.593 38.092 A 23.387 23.387 0 0 0 67.7 35.9 A 17.955 17.955 0 0 0 67.564 33.633 A 13.393 13.393 0 0 0 67.15 31.6 A 7.62 7.62 0 0 0 66.105 29.365 A 6.971 6.971 0 0 0 65.3 28.4 Q 61.9 32.6 57.55 37.45 Q 53.2 42.3 48.65 47 Q 44.1 51.7 40.1 55.5 A 122.637 122.637 0 0 1 37.727 57.699 Q 35.256 59.925 33.4 61.3 Q 31.8 62.5 29.85 63.5 A 9.872 9.872 0 0 1 28.172 64.184 A 7.225 7.225 0 0 1 26.1 64.5 A 6.187 6.187 0 0 1 23.339 63.894 Q 22.144 63.309 21.222 62.156 A 7.84 7.84 0 0 1 21.1 62 A 8.498 8.498 0 0 1 19.95 59.997 Q 19.459 58.761 19.459 57.458 A 7.111 7.111 0 0 1 19.5 56.7 A 16.035 16.035 0 0 1 20.047 53.858 Q 20.438 52.468 21.084 50.954 A 31.94 31.94 0 0 1 21.75 49.5 Q 23.7 45.5 26.4 41.3 A 144.878 144.878 0 0 1 30.821 34.805 A 128.485 128.485 0 0 1 31.85 33.4 Q 33.741 30.856 35.229 28.832 A 676.288 676.288 0 0 0 36.5 27.1 A 207.82 207.82 0 0 1 40.927 21.508 A 241.526 241.526 0 0 1 42.8 19.25 Q 45.403 16.149 47.303 13.547 A 67.193 67.193 0 0 0 48.4 12 A 43.587 43.587 0 0 0 49.662 10.152 Q 50.803 8.379 51.369 7.027 A 10.82 10.82 0 0 0 51.5 6.7 A 5.439 5.439 0 0 0 51.586 6.417 Q 51.625 6.277 51.65 6.15 A 2.842 2.842 0 0 0 51.684 5.941 Q 51.7 5.813 51.7 5.7 A 2.427 2.427 0 0 0 51.643 5.155 Q 51.556 4.778 51.337 4.513 A 1.409 1.409 0 0 0 51.05 4.25 Q 50.4 3.8 49.6 3.8 A 12.007 12.007 0 0 0 47.877 3.936 Q 46.099 4.195 43.804 4.949 A 85.495 85.495 0 0 0 43.8 4.95 Q 40.3 6.1 36.3 7.95 Q 32.3 9.8 28.45 12 Q 24.6 14.2 21.5 16.2 A 27.831 27.831 0 0 0 20.21 17.144 Q 18.894 18.162 17.211 19.65 A 97.655 97.655 0 0 0 16.65 20.15 A 67.482 67.482 0 0 0 12.963 23.736 A 80.609 80.609 0 0 0 10.75 26.15 A 43.769 43.769 0 0 0 7.143 30.827 A 37.669 37.669 0 0 0 5.8 33 A 18.615 18.615 0 0 0 4.661 35.335 Q 4.136 36.653 3.931 37.874 A 9.212 9.212 0 0 0 3.8 39.4 A 6.13 6.13 0 0 0 4.117 41.396 A 5.523 5.523 0 0 0 4.7 42.6 Q 5.2 43.3 4.85 43.45 Q 4.552 43.578 4.29 43.307 A 1.125 1.125 0 0 1 4.2 43.2 A 6.957 6.957 0 0 1 3.713 42.567 Q 3.242 41.884 2.75 40.9 Q 2 39.4 1.55 37.8 Q 1.122 36.277 1.192 35.389 A 2.765 2.765 0 0 1 1.2 35.3 A 15.369 15.369 0 0 1 2.685 30.37 Q 3.622 28.431 5.118 26.458 A 31.901 31.901 0 0 1 6.6 24.65 A 54.578 54.578 0 0 1 12.598 18.854 A 72.937 72.937 0 0 1 18.7 14.3 A 24.728 24.728 0 0 1 19.394 13.856 Q 20.516 13.161 22.4 12.111 A 158.649 158.649 0 0 1 22.6 12 Q 25.3 10.5 28.65 8.75 Q 32 7 35.45 5.4 A 79.612 79.612 0 0 1 38.713 3.97 Q 40.302 3.318 41.754 2.816 A 48.083 48.083 0 0 1 41.8 2.8 A 28.895 28.895 0 0 1 43.328 2.317 Q 45.15 1.8 46.3 1.8 Q 47.5 1.8 49.35 2.05 Q 51.2 2.3 53.05 2.9 A 11.05 11.05 0 0 1 54.544 3.502 Q 55.363 3.907 56.004 4.422 A 6.81 6.81 0 0 1 56.1 4.5 A 3.074 3.074 0 0 1 56.747 5.226 Q 57.233 6.002 57.1 7 Q 56.7 9.2 55.25 11.6 A 32.642 32.642 0 0 1 53.704 13.916 Q 52.845 15.097 51.802 16.343 A 54.404 54.404 0 0 1 51.5 16.7 Q 49.3 19.4 46.4 22.35 Q 43.5 25.3 40.6 28.5 A 128.206 128.206 0 0 0 33.231 37.201 A 139.634 139.634 0 0 0 33 37.5 Q 29.3 42.3 26.75 47.5 Q 24.2 52.7 23.5 58.4 A 1.89 1.89 0 0 0 23.4 58.991 A 1.801 1.801 0 0 0 23.4 59 L 23.4 59.6 A 7.604 7.604 0 0 0 23.453 60.532 Q 23.599 61.713 24.15 62.3 Q 24.9 63.1 26 63.1 Q 27.2 63.1 28.8 62.3 Q 30.4 61.5 31.9 60.4 A 50.69 50.69 0 0 0 32.86 59.679 Q 33.709 59.025 34.3 58.5 Q 38.7 54.9 42.45 50.8 Q 46.2 46.7 50.2 42.8 L 57.35 35.65 Q 61 32 64.8 28 Q 62.7 26.8 60.4 26.8 A 5.009 5.009 0 0 1 60.17 26.795 Q 59.655 26.771 59.605 26.631 A 0.093 0.093 0 0 1 59.6 26.6 A 0.13 0.13 0 0 1 59.657 26.505 Q 59.825 26.364 60.491 26.222 A 9.769 9.769 0 0 1 60.6 26.2 A 1.487 1.487 0 0 1 60.805 26.149 Q 61.017 26.111 61.319 26.102 A 6.387 6.387 0 0 1 61.5 26.1 Q 62.6 26.1 63.7 26.4 A 10.749 10.749 0 0 1 64.469 26.639 Q 64.84 26.771 65.15 26.918 A 5.186 5.186 0 0 1 65.5 27.1 A 2.572 2.572 0 0 0 65.864 26.764 Q 66.023 26.587 66.174 26.366 A 4.604 4.604 0 0 0 66.25 26.25 Q 66.6 25.7 66.8 25.4 A 1.683 1.683 0 0 1 66.886 25.27 Q 67.111 24.963 67.307 25.071 A 0.305 0.305 0 0 1 67.35 25.1 A 0.45 0.45 0 0 1 67.426 25.176 Q 67.564 25.355 67.4 25.6 Q 67 26.1 66.75 26.45 Q 66.559 26.718 66.221 27.132 A 32.363 32.363 0 0 1 66 27.4 A 15.75 15.75 0 0 1 69.369 31.239 A 14.455 14.455 0 0 1 70.4 33.25 Q 71.8 36.6 71.8 40.4 A 28.38 28.38 0 0 1 71.048 46.745 A 37.682 37.682 0 0 1 69.55 51.65 A 63.955 63.955 0 0 1 65.724 59.879 A 76.419 76.419 0 0 1 63.5 63.65 Q 59.7 69.7 55 75.1 Q 49.7 81.3 43.15 86.25 Q 36.6 91.2 29.7 94.3 A 48.964 48.964 0 0 1 22.09 97.021 A 39.334 39.334 0 0 1 16.3 98.1 A 23.574 23.574 0 0 1 15.153 98.214 A 27.844 27.844 0 0 1 14.6 98.25 Q 13.7 98.3 12.8 98.3 Z M 238.2 32.8 L 242.6 28 Q 247.6 22.5 252.05 17.15 A 225.573 225.573 0 0 1 260.335 7.749 A 248.732 248.732 0 0 1 261.6 6.4 A 25.393 25.393 0 0 0 263.242 4.6 A 20.174 20.174 0 0 0 264.3 3.2 A 25.723 25.723 0 0 1 265.916 1.1 A 30.917 30.917 0 0 1 266.9 0 A 9.677 9.677 0 0 0 268.957 0.701 A 8.495 8.495 0 0 0 269.9 0.85 A 10.428 10.428 0 0 1 271.492 1.129 A 8.349 8.349 0 0 1 272.6 1.5 A 2.229 2.229 0 0 1 273.612 2.369 Q 273.844 2.723 274.008 3.196 A 5.838 5.838 0 0 1 274.2 3.9 Q 274.365 4.81 273.983 6.096 A 9.718 9.718 0 0 1 273.8 6.65 Q 273.248 8.167 272.696 8.966 A 4.254 4.254 0 0 1 272.6 9.1 Q 270.7 12 268.55 15.55 Q 266.4 19.1 264.3 22.6 Q 262.2 26.1 260.55 28.9 Q 259.287 31.044 258.522 32.367 A 167.356 167.356 0 0 0 258.1 33.1 A 10.675 10.675 0 0 1 259.101 33.527 Q 259.602 33.769 260.138 34.083 A 18.743 18.743 0 0 1 260.5 34.3 A 10.516 10.516 0 0 1 262.318 35.703 A 9.511 9.511 0 0 1 262.75 36.15 A 3.23 3.23 0 0 1 263.28 36.927 Q 263.629 37.661 263.5 38.5 A 4.323 4.323 0 0 1 264.342 39.541 A 3.508 3.508 0 0 1 264.8 41.3 Q 264.8 42.118 264.026 42.908 A 5.462 5.462 0 0 1 263.4 43.45 A 28.051 28.051 0 0 1 261.926 44.479 Q 261.08 45.033 260.1 45.6 Q 258.2 46.7 256.5 47.8 Q 256.406 47.894 256.269 47.68 A 1.113 1.113 0 0 1 256.25 47.65 Q 256.131 47.452 256.169 47.348 A 0.131 0.131 0 0 1 256.2 47.3 Q 257.6 46.2 259.55 44.4 A 5.849 5.849 0 0 0 261.27 41.392 Q 261.499 40.438 261.5 39.309 A 10.899 10.899 0 0 0 261.5 39.3 A 3.328 3.328 0 0 0 260.876 37.376 A 5.013 5.013 0 0 0 260.15 36.55 A 10.156 10.156 0 0 0 258.584 35.349 A 8.362 8.362 0 0 0 257.3 34.7 A 77.715 77.715 0 0 0 253.165 43.374 A 88.964 88.964 0 0 0 252.15 46 A 108.814 108.814 0 0 0 250.401 51.108 Q 249.603 53.656 249.045 55.953 A 61.378 61.378 0 0 0 248.8 57 Q 248.7 57.8 248.55 58.6 Q 248.4 59.4 248.4 60.2 Q 248.4 61.2 248.75 62.35 Q 249.029 63.265 249.909 63.452 A 2.366 2.366 0 0 0 250.4 63.5 Q 252.089 63.5 253.777 62.11 A 9.977 9.977 0 0 0 254.4 61.55 A 34.108 34.108 0 0 0 255.657 60.263 Q 256.234 59.637 256.69 59.065 A 14.061 14.061 0 0 0 257.4 58.1 A 3.616 3.616 0 0 1 257.675 57.792 Q 257.827 57.641 257.979 57.534 A 1.702 1.702 0 0 1 258.2 57.4 Q 258.6 57.2 258.3 57.9 A 6.84 6.84 0 0 1 257.909 58.712 A 7.737 7.737 0 0 1 257.8 58.9 L 257.2 59.9 A 10.413 10.413 0 0 0 256.805 60.468 Q 256.35 61.169 255.8 62.2 Q 255 63.7 254 64.9 A 3.894 3.894 0 0 1 253.277 65.583 A 2.658 2.658 0 0 1 251.7 66.1 A 2.189 2.189 0 0 1 251.195 66.033 Q 250.675 65.908 249.966 65.553 A 12.562 12.562 0 0 1 249.4 65.25 Q 248.392 64.679 247.655 64.176 A 13.16 13.16 0 0 1 247 63.7 A 5.056 5.056 0 0 1 246.06 62.565 A 6.859 6.859 0 0 1 245.55 61.55 A 18.461 18.461 0 0 1 245.187 60.587 Q 245.024 60.114 244.914 59.693 A 8.724 8.724 0 0 1 244.8 59.2 Q 244.8 58.9 244.75 58.6 A 3.407 3.407 0 0 1 244.716 58.318 Q 244.704 58.173 244.701 58.011 A 6.069 6.069 0 0 1 244.7 57.9 Q 244.7 55.65 245.422 52.768 A 36.163 36.163 0 0 1 245.9 51.05 A 91.317 91.317 0 0 1 247.537 46.183 A 114.401 114.401 0 0 1 248.9 42.65 Q 250.7 38.2 252.5 33.9 Q 252 33.9 251.5 33.85 Q 251 33.8 250.5 33.8 Q 247.6 33.8 244.75 34.25 Q 241.9 34.7 239 35.3 A 343.125 343.125 0 0 0 235.765 39.34 Q 233.575 42.116 231.1 45.35 Q 226.7 51.1 221.65 57.05 Q 216.6 63 211.05 68.05 A 65.743 65.743 0 0 1 204.759 73.13 A 53.144 53.144 0 0 1 199.8 76.25 Q 194.1 79.4 188.5 79.4 Q 185.4 79.4 182.4 78.55 A 11.153 11.153 0 0 1 179.208 77.1 A 9.943 9.943 0 0 1 177.45 75.6 A 7.038 7.038 0 0 1 175.78 72.413 Q 175.5 71.264 175.5 69.9 Q 175.5 69.2 176.1 69.2 A 0.63 0.63 0 0 1 176.376 69.256 Q 176.7 69.413 176.7 70 A 6.161 6.161 0 0 0 176.894 71.589 A 4.345 4.345 0 0 0 178.2 73.75 A 8.401 8.401 0 0 0 181.396 75.535 A 9.929 9.929 0 0 0 181.8 75.65 Q 183.9 76.2 185.6 76.2 Q 186.7 76.2 187.75 76.15 Q 188.8 76.1 189.8 76 Q 195.6 75.2 200.55 72.45 Q 205.5 69.7 209.75 65.7 Q 214 61.7 217.8 57.25 A 73242.049 73242.049 0 0 0 223.331 50.772 A 64888.28 64888.28 0 0 0 225.1 48.7 A 215.7 215.7 0 0 1 226.241 47.327 Q 226.755 46.713 227.332 46.032 A 434.888 434.888 0 0 1 228.55 44.6 L 232.65 39.8 Q 234.7 37.4 236.1 35.8 A 192.423 192.423 0 0 0 224.467 39.076 A 223.271 223.271 0 0 0 220.1 40.5 Q 211.8 43.3 203.7 44.7 Q 202.3 44.9 200.85 45.3 A 10.901 10.901 0 0 1 198.527 45.686 A 9.911 9.911 0 0 1 198 45.7 A 5.946 5.946 0 0 1 195.304 45.04 A 7.416 7.416 0 0 1 194.7 44.7 Q 193.584 43.956 192.642 42.564 A 11.494 11.494 0 0 1 192.5 42.35 A 6.581 6.581 0 0 1 191.774 40.861 A 5.234 5.234 0 0 1 191.5 39.2 A 2.183 2.183 0 0 1 191.797 38.135 Q 192.231 37.352 193.3 36.55 Q 194.775 35.444 196.887 34.338 A 41.543 41.543 0 0 1 197.85 33.85 Q 200.6 32.5 203.65 31.45 Q 206.7 30.4 209.3 29.75 Q 211.9 29.1 213.2 29.1 A 5.497 5.497 0 0 1 213.577 29.112 Q 214.142 29.151 214.319 29.319 A 0.241 0.241 0 0 1 214.4 29.5 A 0.391 0.391 0 0 1 214.242 29.802 Q 213.93 30.067 213 30.2 A 28.692 28.692 0 0 0 211.975 30.427 Q 210.831 30.699 209.317 31.137 A 92.237 92.237 0 0 0 209.1 31.2 Q 206.7 31.9 204.15 32.85 A 63.913 63.913 0 0 0 201.424 33.935 A 50.474 50.474 0 0 0 199.5 34.8 A 21.907 21.907 0 0 0 198.007 35.555 Q 196.509 36.391 195.65 37.25 A 6.344 6.344 0 0 0 195.053 37.932 Q 194.4 38.805 194.4 39.6 Q 194.4 41.452 197.572 41.589 A 12.228 12.228 0 0 0 198.1 41.6 Q 198.6 41.6 199.1 41.55 Q 199.6 41.5 200.2 41.4 Q 206.6 40.4 213.05 38.75 Q 219.5 37.1 225.8 35.4 Q 232.1 33.7 238.2 32.8 Z M 293.3 64.9 Q 289.9 64.9 288.55 62.7 A 9.148 9.148 0 0 1 287.269 58.878 A 11.523 11.523 0 0 1 287.2 57.6 Q 287.2 55.3 287.8 53 A 20.587 20.587 0 0 1 288.814 50.027 A 17.744 17.744 0 0 1 289.4 48.8 Q 288.6 48.3 288.8 48 A 26.112 26.112 0 0 0 289.428 47.18 Q 289.77 46.716 290.142 46.176 A 52.763 52.763 0 0 0 290.6 45.5 Q 291.6 44 292.7 42.6 A 67.538 67.538 0 0 1 293.712 41.364 Q 294.181 40.805 294.615 40.317 A 38.777 38.777 0 0 1 294.9 40 A 7.697 7.697 0 0 1 295.374 39.519 Q 295.855 39.076 296.255 38.902 A 1.349 1.349 0 0 1 296.6 38.8 Q 297.012 38.635 297.288 38.538 A 7.558 7.558 0 0 1 297.4 38.5 A 2.608 2.608 0 0 1 297.578 38.447 Q 297.763 38.4 297.9 38.4 Q 298.1 38.4 298.6 38.9 Q 299 39.4 299.35 39.9 A 1.689 1.689 0 0 0 299.992 40.443 A 2.355 2.355 0 0 0 300.4 40.6 A 50.077 50.077 0 0 0 297.19 44.543 A 55.023 55.023 0 0 0 296.75 45.15 Q 295 47.6 293.5 50.2 A 33.047 33.047 0 0 0 292.434 52.216 Q 291.948 53.221 291.607 54.136 A 16.151 16.151 0 0 0 291.25 55.2 Q 290.73 56.96 290.626 58.399 A 9.722 9.722 0 0 0 290.6 59.1 Q 290.6 59.9 290.8 60.6 Q 290.953 61.136 291.106 61.555 A 8.794 8.794 0 0 0 291.2 61.8 A 2.426 2.426 0 0 0 292.913 63.203 A 3.821 3.821 0 0 0 293.8 63.3 A 4.969 4.969 0 0 0 295.5 63.018 A 4.397 4.397 0 0 0 297 62.1 A 9.312 9.312 0 0 0 297.989 61.209 Q 298.459 60.726 298.942 60.119 A 20.869 20.869 0 0 0 299.7 59.1 A 90.444 90.444 0 0 0 301.352 56.659 A 76.172 76.172 0 0 0 302.25 55.25 A 173.473 173.473 0 0 1 302.651 54.607 Q 303.393 53.426 303.658 53.057 A 3.565 3.565 0 0 1 303.7 53 A 36.002 36.002 0 0 1 303.889 52.721 Q 304.363 52.024 305.51 50.379 A 868.107 868.107 0 0 1 305.6 50.25 Q 307.1 48.1 308.9 45.5 A 181.093 181.093 0 0 1 310.522 43.194 Q 311.403 41.963 312.2 40.9 Q 313.7 38.9 314.1 38.7 A 8.352 8.352 0 0 1 314.475 38.569 Q 314.844 38.45 315.102 38.415 A 1.475 1.475 0 0 1 315.3 38.4 A 0.843 0.843 0 0 1 315.551 38.435 A 0.637 0.637 0 0 1 315.9 38.7 Q 316.053 38.93 316.323 39.277 A 22.39 22.39 0 0 0 316.5 39.5 A 3.772 3.772 0 0 0 317.264 40.349 A 3.292 3.292 0 0 0 318 40.8 A 32.949 32.949 0 0 0 314.803 44.531 A 37.132 37.132 0 0 0 314.25 45.3 Q 312.5 47.8 311 50.4 A 48.767 48.767 0 0 0 309.901 52.518 Q 309.411 53.525 309.045 54.422 A 21.535 21.535 0 0 0 308.55 55.75 Q 307.8 58 307.8 59.5 Q 307.8 60.796 308.198 61.496 A 2.026 2.026 0 0 0 308.2 61.5 A 4.623 4.623 0 0 0 308.965 62.544 A 3.17 3.17 0 0 0 311.3 63.5 A 3.503 3.503 0 0 0 312.466 63.312 A 3.076 3.076 0 0 0 313.5 62.7 A 13.022 13.022 0 0 0 315.005 61.359 Q 316.298 60.031 317.65 58.05 Q 319.8 54.9 321.95 51.15 Q 324.1 47.4 325.9 43.85 Q 327.7 40.3 328.9 38.1 Q 331.1 34 333.45 29.85 Q 335.8 25.7 338.75 22.25 Q 341.7 18.8 345.55 16.75 A 17.288 17.288 0 0 1 351.141 14.942 A 22.499 22.499 0 0 1 354.5 14.7 L 355.75 14.7 A 9.251 9.251 0 0 1 356.753 14.756 A 10.521 10.521 0 0 1 357.1 14.8 A 3.213 3.213 0 0 1 357.34 14.843 Q 357.713 14.926 357.815 15.071 A 0.207 0.207 0 0 1 357.85 15.15 A 0.145 0.145 0 0 1 357.853 15.179 Q 357.853 15.364 357.326 15.394 A 3.963 3.963 0 0 1 357.1 15.4 Q 353.1 15.4 349.1 17.75 A 35.451 35.451 0 0 0 343.765 21.619 A 42.372 42.372 0 0 0 341.45 23.8 Q 337.8 27.5 334.9 31.55 A 93.819 93.819 0 0 0 332.88 34.482 Q 331.325 36.838 330.2 38.9 Q 329.1 40.9 327.45 44.1 Q 325.8 47.3 323.75 50.9 A 85.027 85.027 0 0 1 319.73 57.298 A 78.144 78.144 0 0 1 319.45 57.7 Q 317.481 60.501 315.55 62.382 A 21.825 21.825 0 0 1 315 62.9 Q 313.598 64.175 312.276 64.637 A 4.453 4.453 0 0 1 310.8 64.9 A 7.713 7.713 0 0 1 309.055 64.716 Q 307.93 64.455 307.135 63.822 A 4.28 4.28 0 0 1 306.15 62.7 Q 305.087 60.967 304.861 58.304 A 17.816 17.816 0 0 1 304.8 56.8 Q 304.8 56 304.85 55.2 Q 304.9 54.4 305 53.6 Q 302.9 56.9 301.35 58.95 A 41.356 41.356 0 0 1 300.022 60.619 Q 299.396 61.364 298.797 61.993 A 23.542 23.542 0 0 1 298.4 62.4 A 10.785 10.785 0 0 1 297.212 63.434 Q 296.488 63.972 295.75 64.3 A 8.102 8.102 0 0 1 294.733 64.677 Q 294.197 64.834 293.706 64.88 A 4.304 4.304 0 0 1 293.3 64.9 Z M 114.4 36.1 L 114.8 36.1 Q 115.572 36.1 115.847 36.389 A 0.571 0.571 0 0 1 116 36.8 Q 116 37.414 115.461 38.336 A 8.168 8.168 0 0 1 115.3 38.6 Q 115 39.1 114 40.95 A 4489.307 4489.307 0 0 1 113.068 42.674 Q 112.59 43.556 112.06 44.536 A 7705.972 7705.972 0 0 1 111.7 45.2 A 131.313 131.313 0 0 0 110.173 48.102 A 107.657 107.657 0 0 0 109.35 49.75 Q 108.3 51.9 107.8 53.1 A 3.88 3.88 0 0 0 107.443 54.722 A 4.116 4.116 0 0 0 107.5 55.4 A 121.417 121.417 0 0 1 109.551 52.141 Q 110.813 50.202 112.3 48.05 A 59.596 59.596 0 0 1 116.292 42.883 A 51.377 51.377 0 0 1 118.2 40.8 A 5.076 5.076 0 0 1 118.97 40.062 Q 119.498 39.658 120.062 39.501 A 2.729 2.729 0 0 1 120.8 39.4 Q 122.468 39.4 123.586 39.861 A 3.665 3.665 0 0 1 124.85 40.7 A 4.794 4.794 0 0 1 125.677 41.839 A 3.82 3.82 0 0 1 126.1 43.6 Q 126.1 45.5 125 48 A 209.126 209.126 0 0 0 124.767 48.586 Q 124.397 49.518 123.755 51.154 A 1917.405 1917.405 0 0 0 123.6 51.55 Q 122.6 54.1 121.6 56.5 A 552.222 552.222 0 0 0 122.397 55.381 Q 123.578 53.718 125.128 51.516 A 1559.517 1559.517 0 0 0 125.35 51.2 Q 127.6 48 130.05 44.85 A 93.742 93.742 0 0 1 131.824 42.635 Q 133.25 40.913 134.5 39.6 A 20.093 20.093 0 0 1 135.267 38.834 Q 136.378 37.787 137.059 37.562 A 1.095 1.095 0 0 1 137.4 37.5 A 5.765 5.765 0 0 1 141.213 38.931 A 7.365 7.365 0 0 1 141.35 39.05 Q 142.639 40.192 142.979 41.09 A 1.726 1.726 0 0 1 143.1 41.7 A 4.639 4.639 0 0 1 142.954 42.798 Q 142.631 44.113 141.6 45.9 Q 140.156 48.403 136.859 53.686 A 799.089 799.089 0 0 1 136.6 54.1 Q 134.6 57.3 132.65 61.25 Q 131.324 63.935 130.9 66.135 A 10.386 10.386 0 0 0 130.7 68.1 A 6.735 6.735 0 0 0 130.753 68.984 Q 130.981 70.7 132.2 70.7 A 2.095 2.095 0 0 0 133.021 70.522 Q 133.33 70.39 133.65 70.163 A 5.061 5.061 0 0 0 134.1 69.8 A 24.555 24.555 0 0 0 135.314 68.684 A 27.326 27.326 0 0 0 135.5 68.5 Q 136.2 67.8 136.9 67.3 A 17.349 17.349 0 0 1 136.286 68.552 Q 135.763 69.513 135.2 70.2 A 3.021 3.021 0 0 1 134.246 70.99 A 2.896 2.896 0 0 1 132.9 71.3 Q 131.374 71.3 130.423 70.773 A 2.792 2.792 0 0 1 129.3 69.65 A 7.814 7.814 0 0 1 128.654 68.114 A 6.055 6.055 0 0 1 128.4 66.4 A 14.433 14.433 0 0 1 128.81 63.052 A 18.44 18.44 0 0 1 129.45 60.95 Q 130.5 58.1 131.8 55.3 Q 134.1 50.6 135.4 48.2 Q 136.676 45.844 137.23 44.644 A 19.698 19.698 0 0 0 137.25 44.6 Q 137.717 43.582 137.787 42.708 A 3.815 3.815 0 0 0 137.8 42.4 Q 137.8 41.557 137.445 41.211 A 0.79 0.79 0 0 0 137.3 41.1 A 2.227 2.227 0 0 0 136.831 40.885 A 1.741 1.741 0 0 0 136.3 40.8 A 2.185 2.185 0 0 0 135.704 40.889 Q 135.442 40.963 135.157 41.1 A 5.133 5.133 0 0 0 134.7 41.35 A 9.039 9.039 0 0 0 133.202 42.504 A 10.167 10.167 0 0 0 133 42.7 A 34.408 34.408 0 0 0 131.683 44.184 Q 130.975 45.026 130.221 46.013 A 66.229 66.229 0 0 0 129.3 47.25 Q 127.3 50 125.45 52.95 Q 123.6 55.9 122.25 58.3 Q 120.9 60.7 120.4 61.7 A 5.801 5.801 0 0 1 119.962 62.445 Q 119.219 63.5 118.3 63.5 A 2.312 2.312 0 0 1 117.191 63.195 Q 116.434 62.784 115.649 61.819 A 10.265 10.265 0 0 1 115.4 61.5 A 2547.803 2547.803 0 0 1 116.051 60.014 Q 116.494 59.003 117 57.85 A 181.027 181.027 0 0 0 118.688 53.874 A 197.853 197.853 0 0 0 118.8 53.6 A 54.644 54.644 0 0 0 120.116 50.155 A 67.219 67.219 0 0 0 120.85 47.9 A 28.45 28.45 0 0 0 121.351 46.06 Q 121.8 44.144 121.8 42.7 Q 121.8 41.439 121.403 40.935 A 0.85 0.85 0 0 0 120.7 40.6 A 1.535 1.535 0 0 0 120.13 40.725 Q 119.37 41.032 118.311 42.089 A 14.037 14.037 0 0 0 118.3 42.1 Q 116.9 43.4 114.85 46.05 A 85.943 85.943 0 0 0 112.268 49.577 A 104.846 104.846 0 0 0 110.7 51.9 Q 108.6 55.1 107.05 58.05 Q 105.613 60.785 105.164 62.617 A 8.903 8.903 0 0 0 105.1 62.9 A 0.742 0.742 0 0 1 104.572 63.356 Q 104.408 63.4 104.2 63.4 Q 103.3 63.4 102.3 62.6 Q 101.311 61.809 101.398 60.041 A 6.173 6.173 0 0 1 101.4 60 Q 101.4 59.745 101.98 58.294 A 63.788 63.788 0 0 1 102.2 57.75 A 139.209 139.209 0 0 1 102.849 56.196 Q 103.14 55.511 103.465 54.762 A 249.753 249.753 0 0 1 104.15 53.2 Q 105.3 50.6 106.4 48.1 Q 107.384 45.864 108.048 44.428 A 100.352 100.352 0 0 1 108.2 44.1 Q 107.5 43.5 107.45 43.2 A 1.215 1.215 0 0 1 107.433 43 Q 107.433 42.802 107.499 42.603 A 1.428 1.428 0 0 1 107.5 42.6 A 4.018 4.018 0 0 0 107.666 42.358 Q 107.935 41.937 108.359 41.128 A 40.346 40.346 0 0 0 108.4 41.05 L 109.6 38.75 A 27.542 27.542 0 0 0 109.839 38.283 Q 110.222 37.513 110.3 37.2 A 4.536 4.536 0 0 1 110.516 37.101 Q 110.973 36.902 111.95 36.55 Q 113.2 36.1 114.4 36.1 Z M 75.9 54.9 L 78.3 49.3 Q 78.223 49.147 78.176 49.023 A 1.815 1.815 0 0 1 78.15 48.95 A 1.304 1.304 0 0 1 78.124 48.861 Q 78.112 48.816 78.106 48.776 A 0.519 0.519 0 0 1 78.1 48.7 A 1.128 1.128 0 0 1 78.071 48.539 Q 78.041 48.238 78.2 48 A 104.107 104.107 0 0 1 80.094 45.183 Q 81.051 43.811 81.947 42.637 A 53.77 53.77 0 0 1 83 41.3 A 34.55 34.55 0 0 1 83.772 40.382 Q 85.247 38.696 85.836 38.605 A 0.421 0.421 0 0 1 85.9 38.6 Q 87.094 38.6 88.652 39.982 A 12.659 12.659 0 0 1 89.2 40.5 Q 87.9 42.1 86.5 44.05 Q 85.1 46 83.8 48 Q 82.4 50.1 80.85 52.55 Q 79.3 55 78.7 57 Q 78.1 58.8 78.1 59.8 Q 78.1 61.171 79.06 61.199 A 1.386 1.386 0 0 0 79.1 61.2 A 1.939 1.939 0 0 0 79.872 61.011 Q 81.062 60.485 82.9 58.5 A 44.989 44.989 0 0 0 84.224 57.03 Q 84.94 56.203 85.708 55.245 A 83.957 83.957 0 0 0 86.65 54.05 Q 88.7 51.4 90.6 48.7 L 94.35 43.45 Q 96.1 41 97.3 39.5 Q 98.4 38.1 99.3 38.1 A 1.992 1.992 0 0 1 100.196 38.337 Q 100.895 38.689 101.689 39.566 A 12.276 12.276 0 0 1 102.3 40.3 Q 100.97 42.2 99.098 45.139 A 246.762 246.762 0 0 0 98.9 45.45 Q 96.9 48.6 95.25 51.85 A 32.102 32.102 0 0 0 94.174 54.182 Q 93.413 56.038 93.1 57.6 Q 93 58 92.95 58.4 Q 92.9 58.797 92.9 59.292 A 10.873 10.873 0 0 0 92.9 59.3 A 8.395 8.395 0 0 0 92.952 60.276 Q 93.178 62.2 94.4 62.2 A 1.856 1.856 0 0 0 94.984 62.096 Q 95.5 61.924 96.127 61.469 A 7.946 7.946 0 0 0 96.35 61.3 A 17.775 17.775 0 0 0 97.908 59.921 A 20.969 20.969 0 0 0 98.6 59.2 Q 99.676 58.027 100.273 57.236 A 12.743 12.743 0 0 0 100.3 57.2 Q 103.5 52.9 106.4 48.3 A 10.911 10.911 0 0 1 106.603 48.006 Q 106.998 47.454 107.169 47.405 A 0.114 0.114 0 0 1 107.2 47.4 A 0.155 0.155 0 0 1 107.283 47.421 Q 107.381 47.481 107.354 47.718 A 1.17 1.17 0 0 1 107.35 47.75 A 2.916 2.916 0 0 1 107.314 47.954 Q 107.269 48.163 107.2 48.3 Q 105.2 51.6 102.55 55.5 Q 99.9 59.4 97.3 61.9 Q 96.364 62.836 95.428 63.146 A 2.935 2.935 0 0 1 94.5 63.3 Q 91.8 63.3 90.5 62 A 4.866 4.866 0 0 1 89.683 60.939 A 3.71 3.71 0 0 1 89.2 59.1 A 7.628 7.628 0 0 1 89.295 57.928 A 9.919 9.919 0 0 1 89.5 56.95 A 36.43 36.43 0 0 1 90.102 54.899 A 40.008 40.008 0 0 1 90.2 54.6 L 92.9 47.5 Q 91.475 49.305 90.501 50.524 A 338.735 338.735 0 0 1 90.4 50.65 Q 89.4 51.9 88.6 53 Q 87.946 53.934 87.119 55.085 A 286.097 286.097 0 0 1 87 55.25 Q 86.1 56.5 85.1 57.7 A 49.339 49.339 0 0 1 83.229 60.021 A 36.008 36.008 0 0 1 81.4 62 A 14.321 14.321 0 0 1 80.651 62.701 Q 79.48 63.714 78.725 63.793 A 1.2 1.2 0 0 1 78.6 63.8 A 7.742 7.742 0 0 1 77.328 63.702 Q 76.654 63.59 76.116 63.348 A 3.497 3.497 0 0 1 75.25 62.8 A 2.82 2.82 0 0 1 74.493 61.789 Q 74.189 61.087 74.3 60.2 A 21.092 21.092 0 0 1 74.513 59.18 Q 74.635 58.661 74.791 58.088 A 36.693 36.693 0 0 1 74.9 57.7 Q 75.3 56.3 75.9 54.9 Z M 275.3 64.8 Q 272.9 64.8 272 63.15 Q 271.1 61.5 271.4 59.6 Q 271.714 57.559 272.429 56.134 A 7.307 7.307 0 0 1 272.85 55.4 A 41.344 41.344 0 0 1 273.933 53.834 Q 274.603 52.909 275.4 51.9 Q 276.6 50.2 277.7 48.4 Q 278.798 46.604 278.003 46.301 A 0.724 0.724 0 0 0 278 46.3 Q 277.588 46.63 276.7 47.028 A 16.572 16.572 0 0 1 276.3 47.2 Q 275.1 47.7 273.8 47.7 A 4.933 4.933 0 0 1 271.716 47.231 A 5.68 5.68 0 0 1 271.65 47.2 A 2.853 2.853 0 0 1 270.448 46.106 A 4.097 4.097 0 0 1 270.1 45.4 Q 268.821 47.762 267.009 50.56 A 106.705 106.705 0 0 1 266.95 50.65 Q 265.1 53.5 263.25 56.1 A 109.506 109.506 0 0 1 261.926 57.923 Q 261.4 58.63 260.919 59.25 A 52.77 52.77 0 0 1 260 60.4 Q 259.6 60.8 259.25 60.7 Q 258.931 60.609 259.152 60.269 A 1.239 1.239 0 0 1 259.2 60.2 Q 260.781 58.206 262.693 55.504 A 183.478 183.478 0 0 0 264.5 52.9 A 74.118 74.118 0 0 0 269.287 44.784 A 82.924 82.924 0 0 0 270 43.35 A 35.465 35.465 0 0 0 272.166 37.792 A 28.372 28.372 0 0 0 273.1 33.3 A 9.598 9.598 0 0 1 274.547 34.128 Q 275.276 34.642 275.733 35.228 A 3.452 3.452 0 0 1 276.5 37.4 A 5.004 5.004 0 0 1 276.048 39.433 Q 275.65 40.336 274.9 41.25 A 14.679 14.679 0 0 1 272.788 43.33 A 19.685 19.685 0 0 1 270.7 44.8 Q 272 46.7 274 46.7 A 5.193 5.193 0 0 0 275.847 46.347 A 7.146 7.146 0 0 0 277.05 45.75 A 10.199 10.199 0 0 0 278.36 44.804 A 7.583 7.583 0 0 0 279.5 43.6 Q 280.165 42.852 280.658 42.518 A 2.358 2.358 0 0 1 280.85 42.4 A 3.322 3.322 0 0 1 281.179 42.242 Q 281.525 42.1 281.8 42.1 A 3.632 3.632 0 0 1 282.583 42.179 Q 283.398 42.359 283.85 42.95 Q 284.5 43.8 284 44.8 A 88.406 88.406 0 0 0 282.58 46.837 Q 281.959 47.753 281.289 48.781 A 170.56 170.56 0 0 0 279.9 50.95 Q 277.6 54.6 275.8 57.8 A 2.049 2.049 0 0 0 275.648 58.042 Q 275.427 58.448 275.123 59.263 A 26.183 26.183 0 0 0 275 59.6 A 9.986 9.986 0 0 0 274.686 60.648 Q 274.558 61.185 274.518 61.67 A 5.242 5.242 0 0 0 274.5 62.1 A 2.752 2.752 0 0 0 274.55 62.647 Q 274.722 63.492 275.493 63.588 A 1.681 1.681 0 0 0 275.7 63.6 Q 277.007 63.6 278.664 62.161 A 11.899 11.899 0 0 0 278.9 61.95 Q 280.7 60.3 282.5 57.95 A 84.401 84.401 0 0 0 284.613 55.071 A 70.831 70.831 0 0 0 285.75 53.4 Q 287.2 51.2 287.9 50.2 Q 288.4 49.3 288.7 49.3 Q 288.789 49.3 288.799 49.458 A 0.673 0.673 0 0 1 288.8 49.5 Q 288.8 49.9 288.5 50.4 Q 287 52.9 285.3 55.4 A 150.026 150.026 0 0 1 282.006 60.056 A 138.062 138.062 0 0 1 281.9 60.2 Q 280.3 62.3 278.65 63.55 A 6.87 6.87 0 0 1 277.327 64.348 A 4.897 4.897 0 0 1 275.3 64.8 Z M 163.7 37.4 L 166.3 38 A 3.672 3.672 0 0 1 167.337 38.447 Q 168.336 39.094 168.477 40.367 A 3.946 3.946 0 0 1 168.5 40.8 A 4.614 4.614 0 0 1 168.301 42.106 Q 168.141 42.646 167.855 43.217 A 8.681 8.681 0 0 1 167.65 43.6 A 6.951 6.951 0 0 1 166.19 45.377 A 9.089 9.089 0 0 1 165.1 46.2 A 31.628 31.628 0 0 1 163.792 47.025 A 37.356 37.356 0 0 1 163.15 47.4 Q 162.1 48 161 48.6 L 156.5 51 A 26.975 26.975 0 0 0 154.296 52.285 A 21.369 21.369 0 0 0 152.8 53.35 Q 151.2 54.6 150.5 56 L 150.25 56.05 A 0.303 0.303 0 0 1 150.223 56.054 Q 150.012 56.077 150.095 55.722 A 1.401 1.401 0 0 1 150.1 55.7 A 6.762 6.762 0 0 1 150.892 54.31 Q 151.332 53.704 151.94 53.091 A 15.013 15.013 0 0 1 152.85 52.25 Q 154.9 50.5 157 49.2 A 16.04 16.04 0 0 1 158.919 47.876 A 14.805 14.805 0 0 1 159.05 47.8 Q 160.1 47.2 161.1 46.5 Q 162.1 45.8 163.05 45.05 Q 164 44.3 164.7 43.6 A 6.782 6.782 0 0 0 165.276 42.95 Q 165.642 42.475 165.85 42 Q 166.1 41.43 166.171 40.961 A 2.391 2.391 0 0 0 166.2 40.6 A 2.331 2.331 0 0 0 166.073 39.797 Q 165.698 38.771 164.211 38.705 A 4.731 4.731 0 0 0 164 38.7 A 4.006 4.006 0 0 0 162.845 38.883 Q 161.897 39.169 160.8 39.9 A 27.186 27.186 0 0 0 157.135 42.915 A 30.577 30.577 0 0 0 156.6 43.45 Q 154.6 45.5 152.8 47.9 A 27.962 27.962 0 0 0 150.601 51.463 A 34.522 34.522 0 0 0 149.45 53.9 A 24.654 24.654 0 0 0 148.685 55.918 Q 148.011 57.984 148 59.547 A 7.36 7.36 0 0 0 148 59.6 A 6.13 6.13 0 0 0 148.107 60.787 Q 148.239 61.456 148.535 61.96 A 2.811 2.811 0 0 0 149.35 62.85 Q 150.7 63.8 152.5 63.8 A 9.587 9.587 0 0 0 157.156 62.58 A 11.256 11.256 0 0 0 157.3 62.5 A 14.732 14.732 0 0 0 159.882 60.557 A 17.069 17.069 0 0 0 160.5 59.95 A 68.342 68.342 0 0 0 161.555 58.837 Q 162.067 58.283 162.504 57.782 A 34.706 34.706 0 0 0 163 57.2 A 73.152 73.152 0 0 0 163.635 56.394 Q 163.914 56.034 164.218 55.636 A 134.585 134.585 0 0 0 164.85 54.8 Q 165.642 53.745 166.064 53.087 A 8.897 8.897 0 0 0 166.3 52.7 A 0.602 0.602 0 0 1 166.346 52.659 Q 166.512 52.523 166.6 52.7 Q 166.677 52.854 166.695 52.948 A 0.282 0.282 0 0 1 166.7 53 Q 166.332 53.645 165.497 55.01 A 249.378 249.378 0 0 1 165.35 55.25 A 25.928 25.928 0 0 1 164.673 56.292 Q 163.864 57.479 162.679 58.998 A 81.267 81.267 0 0 1 162.6 59.1 Q 160.5 61.8 158.2 63.3 A 8.727 8.727 0 0 1 155.482 64.448 Q 154.336 64.729 152.996 64.785 A 16.387 16.387 0 0 1 152.3 64.8 A 7.195 7.195 0 0 1 147.992 63.36 A 9.405 9.405 0 0 1 147.35 62.85 A 6.241 6.241 0 0 1 145.403 59.641 Q 145.1 58.495 145.1 57.1 Q 145.1 54.1 146.7 50.6 A 32.078 32.078 0 0 1 150.535 44.301 A 35.718 35.718 0 0 1 150.85 43.9 A 30.524 30.524 0 0 1 154.002 40.488 A 25.016 25.016 0 0 1 156.3 38.6 Q 158.357 37.11 160.214 36.627 A 7.005 7.005 0 0 1 161.7 36.4 Q 162.1 36.8 162.65 37 Q 163.2 37.2 163.7 37.4 Z M 249.9 31.9 L 253.2 31.9 Q 253.9 30.4 255.75 27.1 Q 257.6 23.8 259.9 19.9 Q 262.2 16 264.3 12.6 A 207.656 207.656 0 0 1 265.294 11.006 Q 266.261 9.472 266.988 8.39 A 47.889 47.889 0 0 1 267.6 7.5 A 10.052 10.052 0 0 0 267.873 7.047 Q 268.268 6.347 268.298 5.96 A 0.793 0.793 0 0 0 268.3 5.9 Q 268.3 5.205 267.166 5.742 A 5.084 5.084 0 0 0 267.15 5.75 Q 266 6.3 264.6 7.5 A 44.622 44.622 0 0 0 263.18 8.776 Q 261.612 10.243 259.59 12.347 A 151.661 151.661 0 0 0 259.3 12.65 Q 256.1 16 252.55 19.85 Q 249 23.7 245.95 27.1 Q 243.615 29.703 242.071 31.427 A 2879.872 2879.872 0 0 0 241.2 32.4 A 56.174 56.174 0 0 1 244.403 32.072 A 48.452 48.452 0 0 1 245.6 32 Q 247.7 31.9 249.9 31.9 Z M 173.451 63.673 A 1.848 1.848 0 0 0 174.1 63.8 A 0.121 0.121 0 0 0 174.192 63.758 Q 174.21 63.738 174.226 63.708 A 0.403 0.403 0 0 0 174.25 63.65 Q 174.3 63.5 174.2 63.4 Q 174.039 62.997 174.235 62.204 A 6.431 6.431 0 0 1 174.35 61.8 Q 174.7 60.7 175.2 59.7 L 175.8 58.5 A 0.97 0.97 0 0 0 175.83 58.469 Q 176.015 58.267 176.2 57.85 A 2.526 2.526 0 0 0 176.338 57.459 A 1.826 1.826 0 0 0 176.4 57 A 1.398 1.398 0 0 0 176.409 56.981 Q 176.479 56.836 176.464 56.776 A 0.054 0.054 0 0 0 176.45 56.75 A 0.053 0.053 0 0 0 176.411 56.733 Q 176.376 56.733 176.328 56.774 A 0.451 0.451 0 0 0 176.3 56.8 A 1225.54 1225.54 0 0 1 175.527 57.276 Q 175.159 57.501 174.831 57.702 A 596.489 596.489 0 0 1 174.1 58.15 Q 173.538 58.494 172.819 58.857 A 28.727 28.727 0 0 1 171.9 59.3 Q 171.359 59.541 171.143 59.817 A 0.615 0.615 0 0 0 171 60.2 A 0.352 0.352 0 0 0 171.001 60.233 Q 171.009 60.309 171.05 60.35 A 0.082 0.082 0 0 1 171.059 60.361 Q 171.09 60.405 171.098 60.521 A 1.243 1.243 0 0 1 171.1 60.6 A 4.625 4.625 0 0 0 171.238 61.267 A 3.374 3.374 0 0 0 172.3 62.95 A 6.448 6.448 0 0 0 172.376 63.014 Q 172.947 63.484 173.451 63.673 Z" vector-effect="non-scaling-stroke"/></g></svg>